<svg xmlns="http://www.w3.org/2000/svg" version="1.1" xmlns:xlink="http://www.w3.org/1999/xlink" xmlns:svgjs="http://svgjs.com/svgjs" width="1440" height="560" preserveAspectRatio="none" viewBox="0 0 1440 560"><g mask="url(&quot;#SvgjsMask1000&quot;)" fill="none"><rect width="1440" height="560" x="0" y="0" fill="#0e2a47"></rect><path d="M-81.18 387.26L-81.18 387.26" stroke="#132e65" stroke-width="1.5"></path><path d="M-81.18 387.26L-55.18 562.23" stroke="#132e65" stroke-width="1.5"></path><path d="M-81.18 387.26L96.78 405.64" stroke="#132e65" stroke-width="1.5"></path><path d="M-81.18 387.26L73.83 503.76" stroke="#132e65" stroke-width="1.5"></path><path d="M-81.18 387.26L-47.01 690.07" stroke="#132e65" stroke-width="1.5"></path><path d="M-81.18 387.26L222.2 340.55" stroke="#132e65" stroke-width="1.5"></path><path d="M-55.18 562.23L-55.18 562.23" stroke="#132e65" stroke-width="1.5"></path><path d="M-55.18 562.23L-47.01 690.07" stroke="#132e65" stroke-width="1.5"></path><path d="M-55.18 562.23L73.83 503.76" stroke="#132e65" stroke-width="1.5"></path><path d="M-55.18 562.23L96.61 703.04" stroke="#132e65" stroke-width="1.5"></path><path d="M-47.01 690.07L-47.01 690.07" stroke="#132e65" stroke-width="1.5"></path><path d="M-47.01 690.07L96.61 703.04" stroke="#132e65" stroke-width="1.5"></path><path d="M96.78 405.64L96.78 405.64" stroke="#132e65" stroke-width="1.5"></path><path d="M96.78 405.64L73.83 503.76" stroke="#132e65" stroke-width="1.5"></path><path d="M96.78 405.64L222.2 340.55" stroke="#132e65" stroke-width="1.5"></path><path d="M96.78 405.64L219.11 509.23" stroke="#132e65" stroke-width="1.5"></path><path d="M73.83 503.76L73.83 503.76" stroke="#132e65" stroke-width="1.5"></path><path d="M73.83 503.76L219.11 509.23" stroke="#132e65" stroke-width="1.5"></path><path d="M96.61 703.04L96.61 703.04" stroke="#132e65" stroke-width="1.5"></path><path d="M96.61 703.04L246.76 645.07" stroke="#132e65" stroke-width="1.5"></path><path d="M96.61 703.04L73.83 503.76" stroke="#132e65" stroke-width="1.5"></path><path d="M96.61 703.04L219.11 509.23" stroke="#132e65" stroke-width="1.5"></path><path d="M222.2 340.55L222.2 340.55" stroke="#132e65" stroke-width="1.5"></path><path d="M219.11 509.23L219.11 509.23" stroke="#132e65" stroke-width="1.5"></path><path d="M219.11 509.23L246.76 645.07" stroke="#132e65" stroke-width="1.5"></path><path d="M219.11 509.23L387.33 501.6" stroke="#132e65" stroke-width="1.5"></path><path d="M219.11 509.23L222.2 340.55" stroke="#132e65" stroke-width="1.5"></path><path d="M219.11 509.23L373.05 411.25" stroke="#132e65" stroke-width="1.5"></path><path d="M246.76 645.07L246.76 645.07" stroke="#132e65" stroke-width="1.5"></path><path d="M246.76 645.07L403.41 666.61" stroke="#132e65" stroke-width="1.5"></path><path d="M373.05 411.25L373.05 411.25" stroke="#132e65" stroke-width="1.5"></path><path d="M373.05 411.25L387.33 501.6" stroke="#132e65" stroke-width="1.5"></path><path d="M373.05 411.25L222.2 340.55" stroke="#132e65" stroke-width="1.5"></path><path d="M387.33 501.6L387.33 501.6" stroke="#132e65" stroke-width="1.5"></path><path d="M387.33 501.6L403.41 666.61" stroke="#132e65" stroke-width="1.5"></path><path d="M403.41 666.61L403.41 666.61" stroke="#132e65" stroke-width="1.5"></path><path d="M403.41 666.61L539.98 710.44" stroke="#132e65" stroke-width="1.5"></path><path d="M556.3 387.34L556.3 387.34" stroke="#132e65" stroke-width="1.5"></path><path d="M556.3 387.34L557.14 516.59" stroke="#132e65" stroke-width="1.5"></path><path d="M556.3 387.34L691.31 406.9" stroke="#132e65" stroke-width="1.5"></path><path d="M556.3 387.34L651.34 544" stroke="#132e65" stroke-width="1.5"></path><path d="M556.3 387.34L373.05 411.25" stroke="#132e65" stroke-width="1.5"></path><path d="M557.14 516.59L557.14 516.59" stroke="#132e65" stroke-width="1.5"></path><path d="M557.14 516.59L651.34 544" stroke="#132e65" stroke-width="1.5"></path><path d="M557.14 516.59L387.33 501.6" stroke="#132e65" stroke-width="1.5"></path><path d="M557.14 516.59L691.31 406.9" stroke="#132e65" stroke-width="1.5"></path><path d="M539.98 710.44L539.98 710.44" stroke="#132e65" stroke-width="1.5"></path><path d="M539.98 710.44L661 657.22" stroke="#132e65" stroke-width="1.5"></path><path d="M539.98 710.44L557.14 516.59" stroke="#132e65" stroke-width="1.5"></path><path d="M667.7 217.73L667.7 217.73" stroke="#132e65" stroke-width="1.5"></path><path d="M667.7 217.73L827.01 227.65" stroke="#132e65" stroke-width="1.5"></path><path d="M667.7 217.73L691.31 406.9" stroke="#132e65" stroke-width="1.5"></path><path d="M667.7 217.73L556.3 387.34" stroke="#132e65" stroke-width="1.5"></path><path d="M667.7 217.73L856.49 391.73" stroke="#132e65" stroke-width="1.5"></path><path d="M667.7 217.73L939.91 210.77" stroke="#132e65" stroke-width="1.5"></path><path d="M691.31 406.9L691.31 406.9" stroke="#132e65" stroke-width="1.5"></path><path d="M691.31 406.9L651.34 544" stroke="#132e65" stroke-width="1.5"></path><path d="M691.31 406.9L856.49 391.73" stroke="#132e65" stroke-width="1.5"></path><path d="M651.34 544L651.34 544" stroke="#132e65" stroke-width="1.5"></path><path d="M651.34 544L661 657.22" stroke="#132e65" stroke-width="1.5"></path><path d="M661 657.22L661 657.22" stroke="#132e65" stroke-width="1.5"></path><path d="M661 657.22L804.65 706.07" stroke="#132e65" stroke-width="1.5"></path><path d="M661 657.22L557.14 516.59" stroke="#132e65" stroke-width="1.5"></path><path d="M661 657.22L831.75 509.87" stroke="#132e65" stroke-width="1.5"></path><path d="M827.01 227.65L827.01 227.65" stroke="#132e65" stroke-width="1.5"></path><path d="M827.01 227.65L939.91 210.77" stroke="#132e65" stroke-width="1.5"></path><path d="M827.01 227.65L856.49 391.73" stroke="#132e65" stroke-width="1.5"></path><path d="M827.01 227.65L988.78 374.39" stroke="#132e65" stroke-width="1.5"></path><path d="M856.49 391.73L856.49 391.73" stroke="#132e65" stroke-width="1.5"></path><path d="M856.49 391.73L831.75 509.87" stroke="#132e65" stroke-width="1.5"></path><path d="M856.49 391.73L988.78 374.39" stroke="#132e65" stroke-width="1.5"></path><path d="M856.49 391.73L979.42 525.77" stroke="#132e65" stroke-width="1.5"></path><path d="M831.75 509.87L831.75 509.87" stroke="#132e65" stroke-width="1.5"></path><path d="M831.75 509.87L979.42 525.77" stroke="#132e65" stroke-width="1.5"></path><path d="M804.65 706.07L804.65 706.07" stroke="#132e65" stroke-width="1.5"></path><path d="M804.65 706.07L943.23 692.53" stroke="#132e65" stroke-width="1.5"></path><path d="M804.65 706.07L831.75 509.87" stroke="#132e65" stroke-width="1.5"></path><path d="M1008.04 -73.57L1008.04 -73.57" stroke="#132e65" stroke-width="1.5"></path><path d="M1008.04 -73.57L1119.3 -38.78" stroke="#132e65" stroke-width="1.5"></path><path d="M1008.04 -73.57L1118.09 42.48" stroke="#132e65" stroke-width="1.5"></path><path d="M1008.04 -73.57L939.91 210.77" stroke="#132e65" stroke-width="1.5"></path><path d="M1008.04 -73.57L1310.73 -79.95" stroke="#132e65" stroke-width="1.5"></path><path d="M1008.04 -73.57L1257.03 100.8" stroke="#132e65" stroke-width="1.5"></path><path d="M1008.04 -73.57L827.01 227.65" stroke="#132e65" stroke-width="1.5"></path><path d="M939.91 210.77L939.91 210.77" stroke="#132e65" stroke-width="1.5"></path><path d="M939.91 210.77L988.78 374.39" stroke="#132e65" stroke-width="1.5"></path><path d="M939.91 210.77L856.49 391.73" stroke="#132e65" stroke-width="1.5"></path><path d="M939.91 210.77L1110.89 367.27" stroke="#132e65" stroke-width="1.5"></path><path d="M939.91 210.77L1118.09 42.48" stroke="#132e65" stroke-width="1.5"></path><path d="M988.78 374.39L988.78 374.39" stroke="#132e65" stroke-width="1.5"></path><path d="M988.78 374.39L1110.89 367.27" stroke="#132e65" stroke-width="1.5"></path><path d="M979.42 525.77L979.42 525.77" stroke="#132e65" stroke-width="1.5"></path><path d="M979.42 525.77L1102.34 510.41" stroke="#132e65" stroke-width="1.5"></path><path d="M979.42 525.77L988.78 374.39" stroke="#132e65" stroke-width="1.5"></path><path d="M979.42 525.77L943.23 692.53" stroke="#132e65" stroke-width="1.5"></path><path d="M943.23 692.53L943.23 692.53" stroke="#132e65" stroke-width="1.5"></path><path d="M943.23 692.53L1098.07 690.23" stroke="#132e65" stroke-width="1.5"></path><path d="M943.23 692.53L831.75 509.87" stroke="#132e65" stroke-width="1.5"></path><path d="M1119.3 -38.78L1119.3 -38.78" stroke="#132e65" stroke-width="1.5"></path><path d="M1119.3 -38.78L1118.09 42.48" stroke="#132e65" stroke-width="1.5"></path><path d="M1118.09 42.48L1118.09 42.48" stroke="#132e65" stroke-width="1.5"></path><path d="M1118.09 42.48L1257.03 100.8" stroke="#132e65" stroke-width="1.5"></path><path d="M1110.89 367.27L1110.89 367.27" stroke="#132e65" stroke-width="1.5"></path><path d="M1110.89 367.27L1102.34 510.41" stroke="#132e65" stroke-width="1.5"></path><path d="M1110.89 367.27L1262.35 254.36" stroke="#132e65" stroke-width="1.5"></path><path d="M1110.89 367.27L979.42 525.77" stroke="#132e65" stroke-width="1.5"></path><path d="M1110.89 367.27L1238.32 541.38" stroke="#132e65" stroke-width="1.5"></path><path d="M1102.34 510.41L1102.34 510.41" stroke="#132e65" stroke-width="1.5"></path><path d="M1102.34 510.41L1238.32 541.38" stroke="#132e65" stroke-width="1.5"></path><path d="M1102.34 510.41L988.78 374.39" stroke="#132e65" stroke-width="1.5"></path><path d="M1102.34 510.41L1098.07 690.23" stroke="#132e65" stroke-width="1.5"></path><path d="M1102.34 510.41L943.23 692.53" stroke="#132e65" stroke-width="1.5"></path><path d="M1098.07 690.23L1098.07 690.23" stroke="#132e65" stroke-width="1.5"></path><path d="M1098.07 690.23L979.42 525.77" stroke="#132e65" stroke-width="1.5"></path><path d="M1098.07 690.23L1238.32 541.38" stroke="#132e65" stroke-width="1.5"></path><path d="M1098.07 690.23L1311.45 649.44" stroke="#132e65" stroke-width="1.5"></path><path d="M1098.07 690.23L804.65 706.07" stroke="#132e65" stroke-width="1.5"></path><path d="M1310.73 -79.95L1310.73 -79.95" stroke="#132e65" stroke-width="1.5"></path><path d="M1310.73 -79.95L1417.8 -110.48" stroke="#132e65" stroke-width="1.5"></path><path d="M1257.03 100.8L1257.03 100.8" stroke="#132e65" stroke-width="1.5"></path><path d="M1257.03 100.8L1392.68 40.1" stroke="#132e65" stroke-width="1.5"></path><path d="M1257.03 100.8L1262.35 254.36" stroke="#132e65" stroke-width="1.5"></path><path d="M1257.03 100.8L1310.73 -79.95" stroke="#132e65" stroke-width="1.5"></path><path d="M1257.03 100.8L1119.3 -38.78" stroke="#132e65" stroke-width="1.5"></path><path d="M1257.03 100.8L1445.43 224.8" stroke="#132e65" stroke-width="1.5"></path><path d="M1262.35 254.36L1262.35 254.36" stroke="#132e65" stroke-width="1.5"></path><path d="M1262.35 254.36L1445.43 224.8" stroke="#132e65" stroke-width="1.5"></path><path d="M1238.32 541.38L1238.32 541.38" stroke="#132e65" stroke-width="1.5"></path><path d="M1238.32 541.38L1311.45 649.44" stroke="#132e65" stroke-width="1.5"></path><path d="M1238.32 541.38L1416.65 544.11" stroke="#132e65" stroke-width="1.5"></path><path d="M1311.45 649.44L1311.45 649.44" stroke="#132e65" stroke-width="1.5"></path><path d="M1311.45 649.44L1433.91 649.32" stroke="#132e65" stroke-width="1.5"></path><path d="M1311.45 649.44L1416.65 544.11" stroke="#132e65" stroke-width="1.5"></path><path d="M1417.8 -110.48L1417.8 -110.48" stroke="#132e65" stroke-width="1.5"></path><path d="M1417.8 -110.48L1392.68 40.1" stroke="#132e65" stroke-width="1.5"></path><path d="M1392.68 40.1L1392.68 40.1" stroke="#132e65" stroke-width="1.5"></path><path d="M1392.68 40.1L1310.73 -79.95" stroke="#132e65" stroke-width="1.5"></path><path d="M1392.68 40.1L1549.69 50.85" stroke="#132e65" stroke-width="1.5"></path><path d="M1392.68 40.1L1445.43 224.8" stroke="#132e65" stroke-width="1.5"></path><path d="M1392.68 40.1L1576.1 -104.91" stroke="#132e65" stroke-width="1.5"></path><path d="M1445.43 224.8L1445.43 224.8" stroke="#132e65" stroke-width="1.5"></path><path d="M1445.43 224.8L1442.17 364.94" stroke="#132e65" stroke-width="1.5"></path><path d="M1442.17 364.94L1442.17 364.94" stroke="#132e65" stroke-width="1.5"></path><path d="M1442.17 364.94L1599.9 379.9" stroke="#132e65" stroke-width="1.5"></path><path d="M1442.17 364.94L1551.55 490.17" stroke="#132e65" stroke-width="1.5"></path><path d="M1416.65 544.11L1416.65 544.11" stroke="#132e65" stroke-width="1.5"></path><path d="M1416.65 544.11L1433.91 649.32" stroke="#132e65" stroke-width="1.5"></path><path d="M1416.65 544.11L1551.55 490.17" stroke="#132e65" stroke-width="1.5"></path><path d="M1433.91 649.32L1433.91 649.32" stroke="#132e65" stroke-width="1.5"></path><path d="M1433.91 649.32L1572.9 699.69" stroke="#132e65" stroke-width="1.5"></path><path d="M1433.91 649.32L1551.55 490.17" stroke="#132e65" stroke-width="1.5"></path><path d="M1433.91 649.32L1238.32 541.38" stroke="#132e65" stroke-width="1.5"></path><path d="M1433.91 649.32L1442.17 364.94" stroke="#132e65" stroke-width="1.5"></path><path d="M1576.1 -104.91L1576.1 -104.91" stroke="#132e65" stroke-width="1.5"></path><path d="M1576.1 -104.91L1549.69 50.85" stroke="#132e65" stroke-width="1.5"></path><path d="M1576.1 -104.91L1417.8 -110.48" stroke="#132e65" stroke-width="1.5"></path><path d="M1549.69 50.85L1549.69 50.85" stroke="#132e65" stroke-width="1.5"></path><path d="M1549.69 50.85L1584.87 194.35" stroke="#132e65" stroke-width="1.5"></path><path d="M1549.69 50.85L1445.43 224.8" stroke="#132e65" stroke-width="1.5"></path><path d="M1584.87 194.35L1584.87 194.35" stroke="#132e65" stroke-width="1.5"></path><path d="M1584.87 194.35L1445.43 224.8" stroke="#132e65" stroke-width="1.5"></path><path d="M1584.87 194.35L1599.9 379.9" stroke="#132e65" stroke-width="1.5"></path><path d="M1584.87 194.35L1442.17 364.94" stroke="#132e65" stroke-width="1.5"></path><path d="M1584.87 194.35L1392.68 40.1" stroke="#132e65" stroke-width="1.5"></path><path d="M1599.9 379.9L1599.9 379.9" stroke="#132e65" stroke-width="1.5"></path><path d="M1599.9 379.9L1551.55 490.17" stroke="#132e65" stroke-width="1.5"></path><path d="M1599.9 379.9L1445.43 224.8" stroke="#132e65" stroke-width="1.5"></path><path d="M1599.9 379.9L1416.65 544.11" stroke="#132e65" stroke-width="1.5"></path><path d="M1599.9 379.9L1433.91 649.32" stroke="#132e65" stroke-width="1.5"></path><path d="M1551.55 490.17L1551.55 490.17" stroke="#132e65" stroke-width="1.5"></path><path d="M1572.9 699.69L1572.9 699.69" stroke="#132e65" stroke-width="1.5"></path><path d="M1572.9 699.69L1551.55 490.17" stroke="#132e65" stroke-width="1.5"></path><path d="M1572.9 699.69L1416.65 544.11" stroke="#132e65" stroke-width="1.5"></path><path d="M1572.9 699.69L1311.45 649.44" stroke="#132e65" stroke-width="1.5"></path><circle r="5" cx="-81.18" cy="387.26" fill="#132e65"></circle><circle r="5" cx="-55.18" cy="562.23" fill="#132e65"></circle><circle r="5" cx="-47.01" cy="690.07" fill="#132e65"></circle><circle r="5" cx="96.78" cy="405.64" fill="#132e65"></circle><circle r="5" cx="73.83" cy="503.76" fill="#132e65"></circle><circle r="5" cx="96.61" cy="703.04" fill="#132e65"></circle><circle r="5" cx="222.2" cy="340.55" fill="#132e65"></circle><circle r="5" cx="219.11" cy="509.23" fill="#132e65"></circle><circle r="5" cx="246.76" cy="645.07" fill="#132e65"></circle><circle r="5" cx="373.05" cy="411.25" fill="#132e65"></circle><circle r="5" cx="387.33" cy="501.6" fill="#132e65"></circle><circle r="5" cx="403.41" cy="666.61" fill="#132e65"></circle><circle r="5" cx="556.3" cy="387.34" fill="#132e65"></circle><circle r="5" cx="557.14" cy="516.59" fill="#132e65"></circle><circle r="5" cx="539.98" cy="710.44" fill="#132e65"></circle><circle r="5" cx="667.7" cy="217.73" fill="#132e65"></circle><circle r="5" cx="691.31" cy="406.9" fill="#132e65"></circle><circle r="5" cx="651.34" cy="544" fill="#132e65"></circle><circle r="5" cx="661" cy="657.22" fill="#132e65"></circle><circle r="5" cx="827.01" cy="227.65" fill="#132e65"></circle><circle r="5" cx="856.49" cy="391.73" fill="#132e65"></circle><circle r="5" cx="831.75" cy="509.87" fill="#132e65"></circle><circle r="5" cx="804.65" cy="706.07" fill="#132e65"></circle><circle r="5" cx="1008.04" cy="-73.57" fill="#132e65"></circle><circle r="5" cx="939.91" cy="210.77" fill="#132e65"></circle><circle r="5" cx="988.78" cy="374.39" fill="#132e65"></circle><circle r="5" cx="979.42" cy="525.77" fill="#132e65"></circle><circle r="5" cx="943.23" cy="692.53" fill="#132e65"></circle><circle r="5" cx="1119.3" cy="-38.78" fill="#132e65"></circle><circle r="5" cx="1118.09" cy="42.48" fill="#132e65"></circle><circle r="5" cx="1110.89" cy="367.27" fill="#132e65"></circle><circle r="5" cx="1102.34" cy="510.41" fill="#132e65"></circle><circle r="5" cx="1098.07" cy="690.23" fill="#132e65"></circle><circle r="5" cx="1310.73" cy="-79.95" fill="#132e65"></circle><circle r="5" cx="1257.03" cy="100.8" fill="#132e65"></circle><circle r="5" cx="1262.35" cy="254.36" fill="#132e65"></circle><circle r="5" cx="1238.32" cy="541.38" fill="#132e65"></circle><circle r="5" cx="1311.45" cy="649.44" fill="#132e65"></circle><circle r="5" cx="1417.8" cy="-110.48" fill="#132e65"></circle><circle r="5" cx="1392.68" cy="40.1" fill="#132e65"></circle><circle r="5" cx="1445.43" cy="224.8" fill="#132e65"></circle><circle r="5" cx="1442.17" cy="364.94" fill="#132e65"></circle><circle r="5" cx="1416.65" cy="544.11" fill="#132e65"></circle><circle r="5" cx="1433.91" cy="649.32" fill="#132e65"></circle><circle r="5" cx="1576.1" cy="-104.91" fill="#132e65"></circle><circle r="5" cx="1549.69" cy="50.85" fill="#132e65"></circle><circle r="5" cx="1584.87" cy="194.35" fill="#132e65"></circle><circle r="5" cx="1599.9" cy="379.9" fill="#132e65"></circle><circle r="5" cx="1551.55" cy="490.17" fill="#132e65"></circle><circle r="5" cx="1572.9" cy="699.69" fill="#132e65"></circle><path d="M-87.67 652.16L-87.67 652.16" stroke="hsl(228.5, 77.2%, 51.5%)" stroke-width="1.5"></path><path d="M-87.67 652.16L-58.46 514.23" stroke="hsl(228.5, 77.2%, 51.5%)" stroke-width="1.5"></path><path d="M-87.67 652.16L80.17 663.45" stroke="hsl(228.5, 77.2%, 51.5%)" stroke-width="1.5"></path><path d="M-87.67 652.16L101.69 554.65" stroke="hsl(228.5, 77.2%, 51.5%)" stroke-width="1.5"></path><path d="M378.58 523.18L378.58 523.18" stroke="hsl(228.5, 77.2%, 51.5%)" stroke-width="1.5"></path><path d="M378.58 523.18L339.23 637.69" stroke="hsl(228.5, 77.2%, 51.5%)" stroke-width="1.5"></path><path d="M378.58 523.18L509.91 510.87" stroke="hsl(228.5, 77.2%, 51.5%)" stroke-width="1.5"></path><path d="M378.58 523.18L247.75 676.29" stroke="hsl(228.5, 77.2%, 51.5%)" stroke-width="1.5"></path><path d="M378.58 523.18L554.12 651.8" stroke="hsl(228.5, 77.2%, 51.5%)" stroke-width="1.5"></path><path d="M554.12 651.8L554.12 651.8" stroke="hsl(228.5, 77.2%, 51.5%)" stroke-width="1.5"></path><path d="M554.12 651.8L689.1 647.87" stroke="hsl(228.5, 77.2%, 51.5%)" stroke-width="1.5"></path><path d="M554.12 651.8L651.19 554.93" stroke="hsl(228.5, 77.2%, 51.5%)" stroke-width="1.5"></path><path d="M554.12 651.8L509.91 510.87" stroke="hsl(228.5, 77.2%, 51.5%)" stroke-width="1.5"></path><path d="M691.87 386.62L691.87 386.62" stroke="hsl(228.5, 77.2%, 51.5%)" stroke-width="1.5"></path><path d="M691.87 386.62L798.8 515.9" stroke="hsl(228.5, 77.2%, 51.5%)" stroke-width="1.5"></path><path d="M691.87 386.62L651.19 554.93" stroke="hsl(228.5, 77.2%, 51.5%)" stroke-width="1.5"></path><path d="M691.87 386.62L509.91 510.87" stroke="hsl(228.5, 77.2%, 51.5%)" stroke-width="1.5"></path><path d="M691.87 386.62L689.1 647.87" stroke="hsl(228.5, 77.2%, 51.5%)" stroke-width="1.5"></path><path d="M691.87 386.62L962.81 347.48" stroke="hsl(228.5, 77.2%, 51.5%)" stroke-width="1.5"></path><path d="M798.8 515.9L798.8 515.9" stroke="hsl(228.5, 77.2%, 51.5%)" stroke-width="1.5"></path><path d="M798.8 515.9L945.17 525.37" stroke="hsl(228.5, 77.2%, 51.5%)" stroke-width="1.5"></path><path d="M798.8 515.9L651.19 554.93" stroke="hsl(228.5, 77.2%, 51.5%)" stroke-width="1.5"></path><path d="M798.8 515.9L833.38 672.6" stroke="hsl(228.5, 77.2%, 51.5%)" stroke-width="1.5"></path><path d="M833.38 672.6L833.38 672.6" stroke="hsl(228.5, 77.2%, 51.5%)" stroke-width="1.5"></path><path d="M833.38 672.6L689.1 647.87" stroke="hsl(228.5, 77.2%, 51.5%)" stroke-width="1.5"></path><path d="M833.38 672.6L945.17 525.37" stroke="hsl(228.5, 77.2%, 51.5%)" stroke-width="1.5"></path><path d="M833.38 672.6L651.19 554.93" stroke="hsl(228.5, 77.2%, 51.5%)" stroke-width="1.5"></path><path d="M833.38 672.6L554.12 651.8" stroke="hsl(228.5, 77.2%, 51.5%)" stroke-width="1.5"></path><path d="M962.81 347.48L962.81 347.48" stroke="hsl(228.5, 77.2%, 51.5%)" stroke-width="1.5"></path><path d="M962.81 347.48L945.17 525.37" stroke="hsl(228.5, 77.2%, 51.5%)" stroke-width="1.5"></path><path d="M962.81 347.48L1149.24 362.04" stroke="hsl(228.5, 77.2%, 51.5%)" stroke-width="1.5"></path><path d="M962.81 347.48L1132.61 204.57" stroke="hsl(228.5, 77.2%, 51.5%)" stroke-width="1.5"></path><path d="M962.81 347.48L1090.2 533.35" stroke="hsl(228.5, 77.2%, 51.5%)" stroke-width="1.5"></path><path d="M962.81 347.48L798.8 515.9" stroke="hsl(228.5, 77.2%, 51.5%)" stroke-width="1.5"></path><path d="M1286.75 -88.23L1286.75 -88.23" stroke="hsl(228.5, 77.2%, 51.5%)" stroke-width="1.5"></path><path d="M1286.75 -88.23L1272.89 52.83" stroke="hsl(228.5, 77.2%, 51.5%)" stroke-width="1.5"></path><path d="M1286.75 -88.23L1147.39 57.55" stroke="hsl(228.5, 77.2%, 51.5%)" stroke-width="1.5"></path><path d="M1286.75 -88.23L1448.72 39.48" stroke="hsl(228.5, 77.2%, 51.5%)" stroke-width="1.5"></path><path d="M1272.89 52.83L1272.89 52.83" stroke="hsl(228.5, 77.2%, 51.5%)" stroke-width="1.5"></path><path d="M1272.89 52.83L1147.39 57.55" stroke="hsl(228.5, 77.2%, 51.5%)" stroke-width="1.5"></path><path d="M1272.89 52.83L1448.72 39.48" stroke="hsl(228.5, 77.2%, 51.5%)" stroke-width="1.5"></path><path d="M1272.89 52.83L1297.91 233.95" stroke="hsl(228.5, 77.2%, 51.5%)" stroke-width="1.5"></path><path d="M1272.89 52.83L1409.61 204.14" stroke="hsl(228.5, 77.2%, 51.5%)" stroke-width="1.5"></path><path d="M1272.89 52.83L1132.61 204.57" stroke="hsl(228.5, 77.2%, 51.5%)" stroke-width="1.5"></path><path d="M1297.91 233.95L1297.91 233.95" stroke="hsl(228.5, 77.2%, 51.5%)" stroke-width="1.5"></path><path d="M1297.91 233.95L1409.61 204.14" stroke="hsl(228.5, 77.2%, 51.5%)" stroke-width="1.5"></path><path d="M1269.9 537.05L1269.9 537.05" stroke="hsl(228.5, 77.2%, 51.5%)" stroke-width="1.5"></path><path d="M1269.9 537.05L1407.25 491.42" stroke="hsl(228.5, 77.2%, 51.5%)" stroke-width="1.5"></path><path d="M1269.9 537.05L1090.2 533.35" stroke="hsl(228.5, 77.2%, 51.5%)" stroke-width="1.5"></path><path d="M1448.72 39.48L1448.72 39.48" stroke="hsl(228.5, 77.2%, 51.5%)" stroke-width="1.5"></path><path d="M1448.72 39.48L1571.58 97.02" stroke="hsl(228.5, 77.2%, 51.5%)" stroke-width="1.5"></path><path d="M1409.61 204.14L1409.61 204.14" stroke="hsl(228.5, 77.2%, 51.5%)" stroke-width="1.5"></path><path d="M1409.61 204.14L1448.72 39.48" stroke="hsl(228.5, 77.2%, 51.5%)" stroke-width="1.5"></path><path d="M1409.61 204.14L1579.85 212.01" stroke="hsl(228.5, 77.2%, 51.5%)" stroke-width="1.5"></path><path d="M1409.61 204.14L1300.93 350.39" stroke="hsl(228.5, 77.2%, 51.5%)" stroke-width="1.5"></path><path d="M1409.61 204.14L1571.58 97.02" stroke="hsl(228.5, 77.2%, 51.5%)" stroke-width="1.5"></path><path d="M1409.61 204.14L1440.02 399.3" stroke="hsl(228.5, 77.2%, 51.5%)" stroke-width="1.5"></path><path d="M1407.25 491.42L1407.25 491.42" stroke="hsl(228.5, 77.2%, 51.5%)" stroke-width="1.5"></path><path d="M1407.25 491.42L1440.02 399.3" stroke="hsl(228.5, 77.2%, 51.5%)" stroke-width="1.5"></path><path d="M1590.3 410.88L1590.3 410.88" stroke="hsl(228.5, 77.2%, 51.5%)" stroke-width="1.5"></path><path d="M1590.3 410.88L1551.58 540.14" stroke="hsl(228.5, 77.2%, 51.5%)" stroke-width="1.5"></path><path d="M1590.3 410.88L1440.02 399.3" stroke="hsl(228.5, 77.2%, 51.5%)" stroke-width="1.5"></path><path d="M1590.3 410.88L1579.85 212.01" stroke="hsl(228.5, 77.2%, 51.5%)" stroke-width="1.5"></path><path d="M1551.58 540.14L1551.58 540.14" stroke="hsl(228.5, 77.2%, 51.5%)" stroke-width="1.5"></path><path d="M1551.58 540.14L1571.73 640.46" stroke="hsl(228.5, 77.2%, 51.5%)" stroke-width="1.5"></path><path d="M1551.58 540.14L1407.25 491.42" stroke="hsl(228.5, 77.2%, 51.5%)" stroke-width="1.5"></path><path d="M1551.58 540.14L1459.25 685.86" stroke="hsl(228.5, 77.2%, 51.5%)" stroke-width="1.5"></path><path d="M1551.58 540.14L1440.02 399.3" stroke="hsl(228.5, 77.2%, 51.5%)" stroke-width="1.5"></path><path d="M1551.58 540.14L1269.9 537.05" stroke="hsl(228.5, 77.2%, 51.5%)" stroke-width="1.5"></path><path d="M-58.46 514.23L-58.46 514.23" stroke="hsl(228.5, 77.2%, 51.5%)" stroke-width="1.5"></path><path d="M-58.46 514.23L101.69 554.65" stroke="hsl(228.5, 77.2%, 51.5%)" stroke-width="1.5"></path><path d="M101.69 554.65L101.69 554.65" stroke="hsl(228.5, 77.2%, 51.5%)" stroke-width="1.5"></path><path d="M101.69 554.65L80.17 663.45" stroke="hsl(228.5, 77.2%, 51.5%)" stroke-width="1.5"></path><path d="M101.69 554.65L247.75 676.29" stroke="hsl(228.5, 77.2%, 51.5%)" stroke-width="1.5"></path><path d="M80.17 663.45L80.17 663.45" stroke="hsl(228.5, 77.2%, 51.5%)" stroke-width="1.5"></path><path d="M80.17 663.45L247.75 676.29" stroke="hsl(228.5, 77.2%, 51.5%)" stroke-width="1.5"></path><path d="M80.17 663.45L-58.46 514.23" stroke="hsl(228.5, 77.2%, 51.5%)" stroke-width="1.5"></path><path d="M247.75 676.29L247.75 676.29" stroke="hsl(228.5, 77.2%, 51.5%)" stroke-width="1.5"></path><path d="M247.75 676.29L339.23 637.69" stroke="hsl(228.5, 77.2%, 51.5%)" stroke-width="1.5"></path><path d="M247.75 676.29L554.12 651.8" stroke="hsl(228.5, 77.2%, 51.5%)" stroke-width="1.5"></path><path d="M247.75 676.29L509.91 510.87" stroke="hsl(228.5, 77.2%, 51.5%)" stroke-width="1.5"></path><path d="M339.23 637.69L339.23 637.69" stroke="hsl(228.5, 77.2%, 51.5%)" stroke-width="1.5"></path><path d="M339.23 637.69L509.91 510.87" stroke="hsl(228.5, 77.2%, 51.5%)" stroke-width="1.5"></path><path d="M339.23 637.69L554.12 651.8" stroke="hsl(228.5, 77.2%, 51.5%)" stroke-width="1.5"></path><path d="M339.23 637.69L101.69 554.65" stroke="hsl(228.5, 77.2%, 51.5%)" stroke-width="1.5"></path><path d="M509.91 510.87L509.91 510.87" stroke="hsl(228.5, 77.2%, 51.5%)" stroke-width="1.5"></path><path d="M509.91 510.87L651.19 554.93" stroke="hsl(228.5, 77.2%, 51.5%)" stroke-width="1.5"></path><path d="M651.19 554.93L651.19 554.93" stroke="hsl(228.5, 77.2%, 51.5%)" stroke-width="1.5"></path><path d="M651.19 554.93L689.1 647.87" stroke="hsl(228.5, 77.2%, 51.5%)" stroke-width="1.5"></path><path d="M689.1 647.87L689.1 647.87" stroke="hsl(228.5, 77.2%, 51.5%)" stroke-width="1.5"></path><path d="M689.1 647.87L798.8 515.9" stroke="hsl(228.5, 77.2%, 51.5%)" stroke-width="1.5"></path><path d="M945.17 525.37L945.17 525.37" stroke="hsl(228.5, 77.2%, 51.5%)" stroke-width="1.5"></path><path d="M945.17 525.37L1090.2 533.35" stroke="hsl(228.5, 77.2%, 51.5%)" stroke-width="1.5"></path><path d="M1147.39 57.55L1147.39 57.55" stroke="hsl(228.5, 77.2%, 51.5%)" stroke-width="1.5"></path><path d="M1147.39 57.55L1132.61 204.57" stroke="hsl(228.5, 77.2%, 51.5%)" stroke-width="1.5"></path><path d="M1132.61 204.57L1132.61 204.57" stroke="hsl(228.5, 77.2%, 51.5%)" stroke-width="1.5"></path><path d="M1132.61 204.57L1149.24 362.04" stroke="hsl(228.5, 77.2%, 51.5%)" stroke-width="1.5"></path><path d="M1149.24 362.04L1149.24 362.04" stroke="hsl(228.5, 77.2%, 51.5%)" stroke-width="1.5"></path><path d="M1149.24 362.04L1300.93 350.39" stroke="hsl(228.5, 77.2%, 51.5%)" stroke-width="1.5"></path><path d="M1090.2 533.35L1090.2 533.35" stroke="hsl(228.5, 77.2%, 51.5%)" stroke-width="1.5"></path><path d="M1090.2 533.35L1118.28 656.2" stroke="hsl(228.5, 77.2%, 51.5%)" stroke-width="1.5"></path><path d="M1090.2 533.35L1149.24 362.04" stroke="hsl(228.5, 77.2%, 51.5%)" stroke-width="1.5"></path><path d="M1118.28 656.2L1118.28 656.2" stroke="hsl(228.5, 77.2%, 51.5%)" stroke-width="1.5"></path><path d="M1118.28 656.2L1269.9 537.05" stroke="hsl(228.5, 77.2%, 51.5%)" stroke-width="1.5"></path><path d="M1300.93 350.39L1300.93 350.39" stroke="hsl(228.5, 77.2%, 51.5%)" stroke-width="1.5"></path><path d="M1300.93 350.39L1297.91 233.95" stroke="hsl(228.5, 77.2%, 51.5%)" stroke-width="1.5"></path><path d="M1300.93 350.39L1440.02 399.3" stroke="hsl(228.5, 77.2%, 51.5%)" stroke-width="1.5"></path><path d="M1300.93 350.39L1407.25 491.42" stroke="hsl(228.5, 77.2%, 51.5%)" stroke-width="1.5"></path><path d="M1300.93 350.39L1269.9 537.05" stroke="hsl(228.5, 77.2%, 51.5%)" stroke-width="1.5"></path><path d="M1440.02 399.3L1440.02 399.3" stroke="hsl(228.5, 77.2%, 51.5%)" stroke-width="1.5"></path><path d="M1459.25 685.86L1459.25 685.86" stroke="hsl(228.5, 77.2%, 51.5%)" stroke-width="1.5"></path><path d="M1459.25 685.86L1571.73 640.46" stroke="hsl(228.5, 77.2%, 51.5%)" stroke-width="1.5"></path><path d="M1586.06 -41.01L1586.06 -41.01" stroke="hsl(228.5, 77.2%, 51.5%)" stroke-width="1.5"></path><path d="M1586.06 -41.01L1571.58 97.02" stroke="hsl(228.5, 77.2%, 51.5%)" stroke-width="1.5"></path><path d="M1586.06 -41.01L1448.72 39.48" stroke="hsl(228.5, 77.2%, 51.5%)" stroke-width="1.5"></path><path d="M1586.06 -41.01L1579.85 212.01" stroke="hsl(228.5, 77.2%, 51.5%)" stroke-width="1.5"></path><path d="M1586.06 -41.01L1409.61 204.14" stroke="hsl(228.5, 77.2%, 51.5%)" stroke-width="1.5"></path><path d="M1586.06 -41.01L1286.75 -88.23" stroke="hsl(228.5, 77.2%, 51.5%)" stroke-width="1.5"></path><path d="M1571.58 97.02L1571.58 97.02" stroke="hsl(228.5, 77.2%, 51.5%)" stroke-width="1.5"></path><path d="M1571.58 97.02L1579.85 212.01" stroke="hsl(228.5, 77.2%, 51.5%)" stroke-width="1.5"></path><path d="M1571.58 97.02L1272.89 52.83" stroke="hsl(228.5, 77.2%, 51.5%)" stroke-width="1.5"></path><path d="M1571.58 97.02L1297.91 233.95" stroke="hsl(228.5, 77.2%, 51.5%)" stroke-width="1.5"></path><path d="M1579.85 212.01L1579.85 212.01" stroke="hsl(228.5, 77.2%, 51.5%)" stroke-width="1.5"></path><path d="M1571.73 640.46L1571.73 640.46" stroke="hsl(228.5, 77.2%, 51.5%)" stroke-width="1.5"></path><path d="M1571.73 640.46L1407.25 491.42" stroke="hsl(228.5, 77.2%, 51.5%)" stroke-width="1.5"></path><circle r="25" cx="-87.67" cy="652.16" fill="url(#SvgjsRadialGradient1001)"></circle><circle r="25" cx="378.58" cy="523.18" fill="url(#SvgjsRadialGradient1001)"></circle><circle r="25" cx="554.12" cy="651.8" fill="url(#SvgjsRadialGradient1001)"></circle><circle r="25" cx="691.87" cy="386.62" fill="url(#SvgjsRadialGradient1001)"></circle><circle r="25" cx="798.8" cy="515.9" fill="url(#SvgjsRadialGradient1001)"></circle><circle r="25" cx="833.38" cy="672.6" fill="url(#SvgjsRadialGradient1001)"></circle><circle r="25" cx="962.81" cy="347.48" fill="url(#SvgjsRadialGradient1001)"></circle><circle r="25" cx="1286.75" cy="-88.23" fill="url(#SvgjsRadialGradient1001)"></circle><circle r="25" cx="1272.89" cy="52.83" fill="url(#SvgjsRadialGradient1001)"></circle><circle r="25" cx="1297.91" cy="233.95" fill="url(#SvgjsRadialGradient1001)"></circle><circle r="25" cx="1269.9" cy="537.05" fill="url(#SvgjsRadialGradient1001)"></circle><circle r="25" cx="1448.72" cy="39.48" fill="url(#SvgjsRadialGradient1001)"></circle><circle r="25" cx="1409.61" cy="204.14" fill="url(#SvgjsRadialGradient1001)"></circle><circle r="25" cx="1407.25" cy="491.42" fill="url(#SvgjsRadialGradient1001)"></circle><circle r="25" cx="1590.3" cy="410.88" fill="url(#SvgjsRadialGradient1001)"></circle><circle r="25" cx="1551.58" cy="540.14" fill="url(#SvgjsRadialGradient1001)"></circle><circle r="5" cx="-58.46" cy="514.23" fill="#8b9ad9"></circle><circle r="5" cx="101.69" cy="554.65" fill="#8b9ad9"></circle><circle r="5" cx="80.17" cy="663.45" fill="#8b9ad9"></circle><circle r="5" cx="247.75" cy="676.29" fill="#8b9ad9"></circle><circle r="5" cx="339.23" cy="637.69" fill="#8b9ad9"></circle><circle r="5" cx="509.91" cy="510.87" fill="#8b9ad9"></circle><circle r="5" cx="651.19" cy="554.93" fill="#8b9ad9"></circle><circle r="5" cx="689.1" cy="647.87" fill="#8b9ad9"></circle><circle r="5" cx="945.17" cy="525.37" fill="#8b9ad9"></circle><circle r="5" cx="1147.39" cy="57.55" fill="#8b9ad9"></circle><circle r="5" cx="1132.61" cy="204.57" fill="#8b9ad9"></circle><circle r="5" cx="1149.24" cy="362.04" fill="#8b9ad9"></circle><circle r="5" cx="1090.2" cy="533.35" fill="#8b9ad9"></circle><circle r="5" cx="1118.28" cy="656.2" fill="#8b9ad9"></circle><circle r="5" cx="1300.93" cy="350.39" fill="#8b9ad9"></circle><circle r="5" cx="1440.02" cy="399.3" fill="#8b9ad9"></circle><circle r="5" cx="1459.25" cy="685.86" fill="#8b9ad9"></circle><circle r="5" cx="1586.06" cy="-41.01" fill="#8b9ad9"></circle><circle r="5" cx="1571.58" cy="97.02" fill="#8b9ad9"></circle><circle r="5" cx="1579.85" cy="212.01" fill="#8b9ad9"></circle><circle r="5" cx="1571.73" cy="640.46" fill="#8b9ad9"></circle></g><defs><mask id="SvgjsMask1000"><rect width="1440" height="560" fill="#ffffff"></rect></mask><radialGradient id="SvgjsRadialGradient1001"><stop stop-color="#ffffff" offset="0.1"></stop><stop stop-color="#1735b3" offset="0.2"></stop><stop stop-color="rgba(23, 53, 179, 0)" offset="1"></stop></radialGradient></defs></svg>