<svg xmlns="http://www.w3.org/2000/svg" version="1.1" xmlns:xlink="http://www.w3.org/1999/xlink" xmlns:svgjs="http://svgjs.com/svgjs" width="1440" height="560" preserveAspectRatio="none" viewBox="0 0 1440 560"><g mask="url(&quot;#SvgjsMask1000&quot;)" fill="none"><rect width="1440" height="560" x="0" y="0" fill="#0e2a47"></rect><path d="M358.62 187.98L348.38 195.66 338.63 187.36 328.39 195.05 318.64 186.75 308.4 194.44 298.65 186.13M358.87 179.98L348.63 187.67 338.88 179.37 328.64 187.05 318.89 178.75 308.64 186.44 298.9 178.14" stroke="#d3b714" stroke-width="1.26" stroke-dasharray="3, 2"></path><path d="M980.08 302.8a5.6 5.6 0 1 0-7.8 8.04 5.6 5.6 0 1 0 7.8-8.04zM968.93 314.28a5.6 5.6 0 1 0-7.8 8.04 5.6 5.6 0 1 0 7.8-8.04zM957.79 325.76a5.6 5.6 0 1 0-7.8 8.04 5.6 5.6 0 1 0 7.8-8.04zM946.64 337.24a5.6 5.6 0 1 0-7.8 8.04 5.6 5.6 0 1 0 7.8-8.04zM990.89 268.69a5.6 5.6 0 1 0-7.8 8.04 5.6 5.6 0 1 0 7.8-8.04zM979.74 280.17a5.6 5.6 0 1 0-7.8 8.04 5.6 5.6 0 1 0 7.8-8.04zM968.6 291.65a5.6 5.6 0 1 0-7.8 8.04 5.6 5.6 0 1 0 7.8-8.04zM957.45 303.13a5.6 5.6 0 1 0-7.8 8.04 5.6 5.6 0 1 0 7.8-8.04zM1001.7 234.59a5.6 5.6 0 1 0-7.81 8.03 5.6 5.6 0 1 0 7.81-8.03zM990.55 246.07a5.6 5.6 0 1 0-7.8 8.03 5.6 5.6 0 1 0 7.8-8.03zM979.41 257.55a5.6 5.6 0 1 0-7.8 8.04 5.6 5.6 0 1 0 7.8-8.04zM968.26 269.03a5.6 5.6 0 1 0-7.8 8.04 5.6 5.6 0 1 0 7.8-8.04z" stroke="#e73635" stroke-width="1.77" stroke-dasharray="2, 2"></path><circle r="81.22319206910102" cx="773.9" cy="384.33" stroke="#037b0b" stroke-width="2.33"></circle><rect width="252" height="252" clip-path="url(&quot;#SvgjsClipPath1001&quot;)" x="843.07" y="-45.39" fill="url(#SvgjsPattern1002)" transform="rotate(95.79, 969.07, 80.61)"></rect><rect width="232.44" height="232.44" clip-path="url(&quot;#SvgjsClipPath1003&quot;)" x="963.35" y="189.71" fill="url(#SvgjsPattern1004)" transform="rotate(342.89, 1079.57, 305.93)"></rect><rect width="203.72" height="203.72" clip-path="url(&quot;#SvgjsClipPath1005&quot;)" x="498.98" y="209.7" fill="url(#SvgjsPattern1006)" transform="rotate(32.2, 600.84, 311.56)"></rect><rect width="365.12" height="365.12" clip-path="url(&quot;#SvgjsClipPath1007&quot;)" x="586.95" y="336.53" fill="url(#SvgjsPattern1008)" transform="rotate(155.04, 769.51, 519.09)"></rect><path d="M411.48 414.65a5.6 5.6 0 1 0 10.05 4.93 5.6 5.6 0 1 0-10.05-4.93zM425.84 421.7a5.6 5.6 0 1 0 10.06 4.93 5.6 5.6 0 1 0-10.06-4.93zM440.21 428.74a5.6 5.6 0 1 0 10.05 4.93 5.6 5.6 0 1 0-10.05-4.93zM454.57 435.78a5.6 5.6 0 1 0 10.06 4.93 5.6 5.6 0 1 0-10.06-4.93z" stroke="#e73635" stroke-width="1.44" stroke-dasharray="4, 4"></path><path d="M798.23 612.98 L706.6 508.35L843.1062870530243 469.9737129469756z" fill="#e73635"></path><rect width="125.6" height="125.6" clip-path="url(&quot;#SvgjsClipPath1009&quot;)" x="-36.72" y="417.27" fill="url(#SvgjsPattern1010)" transform="rotate(247.73, 26.08, 480.07)"></rect><circle r="46.666666666666664" cx="181.05" cy="332.32" stroke="#037b0b" stroke-width="1.27" stroke-dasharray="2, 2"></circle><rect width="156" height="156" clip-path="url(&quot;#SvgjsClipPath1011&quot;)" x="448.48" y="250.98" fill="url(#SvgjsPattern1012)" transform="rotate(71.82, 526.48, 328.98)"></rect></g><defs><mask id="SvgjsMask1000"><rect width="1440" height="560" fill="#ffffff"></rect></mask><pattern x="0" y="0" width="252" height="6" patternUnits="userSpaceOnUse" id="SvgjsPattern1002"><rect width="252" height="3" x="0" y="0" fill="#037b0b"></rect><rect width="252" height="3" x="0" y="3" fill="rgba(0, 0, 0, 0)"></rect></pattern><clipPath id="SvgjsClipPath1001"><circle r="63" cx="969.07" cy="80.61"></circle></clipPath><pattern x="0" y="0" width="232.44" height="8.94" patternUnits="userSpaceOnUse" id="SvgjsPattern1004"><rect width="232.44" height="4.47" x="0" y="0" fill="#037b0b"></rect><rect width="232.44" height="4.47" x="0" y="4.47" fill="rgba(0, 0, 0, 0)"></rect></pattern><clipPath id="SvgjsClipPath1003"><circle r="58.11" cx="1079.57" cy="305.93"></circle></clipPath><pattern x="0" y="0" width="9.26" height="9.26" patternUnits="userSpaceOnUse" id="SvgjsPattern1006"><path d="M0 9.26L4.63 0L9.26 9.26" stroke="#d3b714" fill="none"></path></pattern><clipPath id="SvgjsClipPath1005"><circle r="50.93" cx="600.84" cy="311.56"></circle></clipPath><pattern x="0" y="0" width="365.12" height="13.04" patternUnits="userSpaceOnUse" id="SvgjsPattern1008"><rect width="365.12" height="6.52" x="0" y="0" fill="#037b0b"></rect><rect width="365.12" height="6.52" x="0" y="6.52" fill="rgba(0, 0, 0, 0)"></rect></pattern><clipPath id="SvgjsClipPath1007"><circle r="91.28" cx="769.51" cy="519.09"></circle></clipPath><pattern x="0" y="0" width="12.56" height="12.56" patternUnits="userSpaceOnUse" id="SvgjsPattern1010"><path d="M6.28 1L6.28 11.56M1 6.28L11.56 6.28" stroke="#d3b714" fill="none" stroke-width="4.58"></path></pattern><clipPath id="SvgjsClipPath1009"><circle r="31.4" cx="26.08" cy="480.07"></circle></clipPath><pattern x="0" y="0" width="6" height="6" patternUnits="userSpaceOnUse" id="SvgjsPattern1012"><path d="M0 6L3 0L6 6" stroke="#037b0b" fill="none"></path></pattern><clipPath id="SvgjsClipPath1011"><circle r="39" cx="526.48" cy="328.98"></circle></clipPath></defs></svg>