<svg xmlns="http://www.w3.org/2000/svg" version="1.1" xmlns:xlink="http://www.w3.org/1999/xlink" xmlns:svgjs="http://svgjs.com/svgjs" width="1440" height="560" preserveAspectRatio="none" viewBox="0 0 1440 560"><g mask="url(&quot;#SvgjsMask1000&quot;)" fill="none"><rect width="1440" height="560" x="0" y="0" fill="#0e2a47"></rect><path d="M251.41 265.38L264.63 265.38L264.63 284.5L251.41 284.5z" fill="#e73635"></path><path d="M804.02 525.66L855.52 525.66L855.52 550.15L804.02 550.15z" fill="#d3b714"></path><path d="M307.79 88.09L352.62 88.09L352.62 132.92L307.79 132.92z" stroke="#d3b714"></path><path d="M167.14 81.82 a4.08 4.08 0 1 0 8.16 0 a4.08 4.08 0 1 0 -8.16 0z" fill="#037b0b"></path><path d="M1410.15 291.37L1443.76 291.37L1443.76 320.92L1410.15 320.92z" fill="#e73635"></path><path d="M997.1 175.78L1033.77 175.78L1033.77 212.45L997.1 212.45z" fill="#d3b714"></path><path d="M889.85 558.59L894.16 558.59L894.16 592.88L889.85 592.88z" stroke="#e73635"></path><path d="M43.09 332.88 a40.59 40.59 0 1 0 81.18 0 a40.59 40.59 0 1 0 -81.18 0z" stroke="#d3b714"></path><path d="M742.66 297.19L788.56 297.19L788.56 343.09L742.66 343.09z" fill="#037b0b"></path><path d="M1103.74 3.57a41.62 41.62 0 1 0 80.4 21.56z" stroke="#037b0b"></path><path d="M248.23 204.49L287.47 204.49L287.47 243.73L248.23 243.73z" fill="#e73635"></path><path d="M854.52 282.29 a47.41 47.41 0 1 0 94.82 0 a47.41 47.41 0 1 0 -94.82 0z" fill="#037b0b"></path><path d="M773.54 345.6L806.2 345.6L806.2 359.28L773.54 359.28z" stroke="#e73635"></path><path d="M854.64 472.53L872.58 472.53L872.58 490.47L854.64 490.47z" stroke="#037b0b"></path><path d="M25.29 447.63 a0.27 0.27 0 1 0 0.54 0 a0.27 0.27 0 1 0 -0.54 0z" stroke="#037b0b"></path><path d="M1297.66 555.24 a30.67 30.67 0 1 0 61.34 0 a30.67 30.67 0 1 0 -61.34 0z" fill="#037b0b"></path><path d="M171.36 284.78L173.54 284.78L173.54 335.67L171.36 335.67z" stroke="#037b0b"></path><path d="M1342.13 210.91L1377.42 210.91L1377.42 246.2L1342.13 246.2z" fill="#037b0b"></path><path d="M1085.01 35.18a10.1 10.1 0 1 0-10.97-16.96z" stroke="#e73635"></path><path d="M772.74 505.48L784.25 505.48L784.25 509.06L772.74 509.06z" fill="#e73635"></path><path d="M38.43 49.05L67.38 49.05L67.38 50.2L38.43 50.2z" stroke="#037b0b"></path><path d="M74.63 34.2 a4.86 4.86 0 1 0 9.72 0 a4.86 4.86 0 1 0 -9.72 0z" fill="#037b0b"></path><path d="M1257.8 480.05a12.33 12.33 0 1 0-17.31 17.57z" stroke="#e73635"></path><path d="M1137.11 295.26L1188.11 295.26L1188.11 346.26L1137.11 346.26z" fill="#e73635"></path><path d="M794.61 496.11 a10.73 10.73 0 1 0 21.46 0 a10.73 10.73 0 1 0 -21.46 0z" stroke="#e73635"></path><path d="M260.13 58.68 a9.48 9.48 0 1 0 18.96 0 a9.48 9.48 0 1 0 -18.96 0z" stroke="#037b0b"></path><path d="M428.52 360.01L466.87 360.01L466.87 398.36L428.52 398.36z" stroke="#d3b714"></path><path d="M967.02 50.65 a46.96 46.96 0 1 0 93.92 0 a46.96 46.96 0 1 0 -93.92 0z" fill="#d3b714"></path><path d="M1161.07 430.37L1216.62 430.37L1216.62 441.71L1161.07 441.71z" fill="#037b0b"></path><path d="M1437.66 363.9L1464.13 363.9L1464.13 390.37L1437.66 390.37z" stroke="#d3b714"></path><path d="M1237.73 549.8 a5.26 5.26 0 1 0 10.52 0 a5.26 5.26 0 1 0 -10.52 0z" stroke="#d3b714"></path><path d="M155.86 502.34 a14.28 14.28 0 1 0 28.56 0 a14.28 14.28 0 1 0 -28.56 0z" stroke="#d3b714"></path><path d="M394.28 496.67a20.27 20.27 0 1 0-40.53 0.97z" fill="#e73635"></path></g><defs><mask id="SvgjsMask1000"><rect width="1440" height="560" fill="#ffffff"></rect></mask></defs></svg>