<svg xmlns="http://www.w3.org/2000/svg" version="1.1" xmlns:xlink="http://www.w3.org/1999/xlink" xmlns:svgjs="http://svgjs.com/svgjs" width="1440" height="560" preserveAspectRatio="none" viewBox="0 0 1440 560"><g mask="url(&quot;#SvgjsMask1000&quot;)" fill="none"><rect width="1440" height="560" x="0" y="0" fill="#0e2a47"></rect><path d="M-38.34 393.08L-38.34 393.08" stroke="#132e65" stroke-width="1.5"></path><path d="M-38.34 393.08L78.66 400.82" stroke="#132e65" stroke-width="1.5"></path><path d="M-38.34 393.08L-76.72 511.59" stroke="#132e65" stroke-width="1.5"></path><path d="M-76.72 511.59L-76.72 511.59" stroke="#132e65" stroke-width="1.5"></path><path d="M-76.72 511.59L37.62 542.56" stroke="#132e65" stroke-width="1.5"></path><path d="M-51.68 694.44L-51.68 694.44" stroke="#132e65" stroke-width="1.5"></path><path d="M-51.68 694.44L50.21 649.82" stroke="#132e65" stroke-width="1.5"></path><path d="M-51.68 694.44L37.62 542.56" stroke="#132e65" stroke-width="1.5"></path><path d="M-51.68 694.44L-76.72 511.59" stroke="#132e65" stroke-width="1.5"></path><path d="M78.66 400.82L78.66 400.82" stroke="#132e65" stroke-width="1.5"></path><path d="M78.66 400.82L211.56 403.64" stroke="#132e65" stroke-width="1.5"></path><path d="M78.66 400.82L37.62 542.56" stroke="#132e65" stroke-width="1.5"></path><path d="M78.66 400.82L-76.72 511.59" stroke="#132e65" stroke-width="1.5"></path><path d="M37.62 542.56L37.62 542.56" stroke="#132e65" stroke-width="1.5"></path><path d="M37.62 542.56L50.21 649.82" stroke="#132e65" stroke-width="1.5"></path><path d="M50.21 649.82L50.21 649.82" stroke="#132e65" stroke-width="1.5"></path><path d="M50.21 649.82L-76.72 511.59" stroke="#132e65" stroke-width="1.5"></path><path d="M50.21 649.82L238.76 640.13" stroke="#132e65" stroke-width="1.5"></path><path d="M50.21 649.82L238.96 542.21" stroke="#132e65" stroke-width="1.5"></path><path d="M50.21 649.82L78.66 400.82" stroke="#132e65" stroke-width="1.5"></path><path d="M211.56 403.64L211.56 403.64" stroke="#132e65" stroke-width="1.5"></path><path d="M211.56 403.64L238.96 542.21" stroke="#132e65" stroke-width="1.5"></path><path d="M238.96 542.21L238.96 542.21" stroke="#132e65" stroke-width="1.5"></path><path d="M238.96 542.21L238.76 640.13" stroke="#132e65" stroke-width="1.5"></path><path d="M238.96 542.21L372.75 516.21" stroke="#132e65" stroke-width="1.5"></path><path d="M238.96 542.21L392.57 659.02" stroke="#132e65" stroke-width="1.5"></path><path d="M238.96 542.21L37.62 542.56" stroke="#132e65" stroke-width="1.5"></path><path d="M238.96 542.21L383.3 397.88" stroke="#132e65" stroke-width="1.5"></path><path d="M238.76 640.13L238.76 640.13" stroke="#132e65" stroke-width="1.5"></path><path d="M238.76 640.13L392.57 659.02" stroke="#132e65" stroke-width="1.5"></path><path d="M383.3 397.88L383.3 397.88" stroke="#132e65" stroke-width="1.5"></path><path d="M383.3 397.88L372.75 516.21" stroke="#132e65" stroke-width="1.5"></path><path d="M383.3 397.88L211.56 403.64" stroke="#132e65" stroke-width="1.5"></path><path d="M383.3 397.88L541.67 530.58" stroke="#132e65" stroke-width="1.5"></path><path d="M372.75 516.21L372.75 516.21" stroke="#132e65" stroke-width="1.5"></path><path d="M372.75 516.21L392.57 659.02" stroke="#132e65" stroke-width="1.5"></path><path d="M372.75 516.21L541.67 530.58" stroke="#132e65" stroke-width="1.5"></path><path d="M372.75 516.21L238.76 640.13" stroke="#132e65" stroke-width="1.5"></path><path d="M392.57 659.02L392.57 659.02" stroke="#132e65" stroke-width="1.5"></path><path d="M392.57 659.02L552.78 637.68" stroke="#132e65" stroke-width="1.5"></path><path d="M541.67 530.58L541.67 530.58" stroke="#132e65" stroke-width="1.5"></path><path d="M541.67 530.58L552.78 637.68" stroke="#132e65" stroke-width="1.5"></path><path d="M541.67 530.58L702.58 500.19" stroke="#132e65" stroke-width="1.5"></path><path d="M541.67 530.58L658.75 647.55" stroke="#132e65" stroke-width="1.5"></path><path d="M552.78 637.68L552.78 637.68" stroke="#132e65" stroke-width="1.5"></path><path d="M552.78 637.68L658.75 647.55" stroke="#132e65" stroke-width="1.5"></path><path d="M657.38 347.16L657.38 347.16" stroke="#132e65" stroke-width="1.5"></path><path d="M657.38 347.16L790.28 366.58" stroke="#132e65" stroke-width="1.5"></path><path d="M657.38 347.16L702.58 500.19" stroke="#132e65" stroke-width="1.5"></path><path d="M657.38 347.16L541.67 530.58" stroke="#132e65" stroke-width="1.5"></path><path d="M657.38 347.16L852.09 207.84" stroke="#132e65" stroke-width="1.5"></path><path d="M702.58 500.19L702.58 500.19" stroke="#132e65" stroke-width="1.5"></path><path d="M702.58 500.19L658.75 647.55" stroke="#132e65" stroke-width="1.5"></path><path d="M702.58 500.19L858.44 497.62" stroke="#132e65" stroke-width="1.5"></path><path d="M658.75 647.55L658.75 647.55" stroke="#132e65" stroke-width="1.5"></path><path d="M658.75 647.55L819.28 658.32" stroke="#132e65" stroke-width="1.5"></path><path d="M658.75 647.55L858.44 497.62" stroke="#132e65" stroke-width="1.5"></path><path d="M658.75 647.55L392.57 659.02" stroke="#132e65" stroke-width="1.5"></path><path d="M852.09 207.84L852.09 207.84" stroke="#132e65" stroke-width="1.5"></path><path d="M852.09 207.84L952.51 199.72" stroke="#132e65" stroke-width="1.5"></path><path d="M852.09 207.84L790.28 366.58" stroke="#132e65" stroke-width="1.5"></path><path d="M852.09 207.84L1006.03 106.34" stroke="#132e65" stroke-width="1.5"></path><path d="M852.09 207.84L999.75 340.32" stroke="#132e65" stroke-width="1.5"></path><path d="M790.28 366.58L790.28 366.58" stroke="#132e65" stroke-width="1.5"></path><path d="M790.28 366.58L858.44 497.62" stroke="#132e65" stroke-width="1.5"></path><path d="M790.28 366.58L702.58 500.19" stroke="#132e65" stroke-width="1.5"></path><path d="M858.44 497.62L858.44 497.62" stroke="#132e65" stroke-width="1.5"></path><path d="M858.44 497.62L953.41 516.12" stroke="#132e65" stroke-width="1.5"></path><path d="M858.44 497.62L819.28 658.32" stroke="#132e65" stroke-width="1.5"></path><path d="M819.28 658.32L819.28 658.32" stroke="#132e65" stroke-width="1.5"></path><path d="M819.28 658.32L946.64 649.8" stroke="#132e65" stroke-width="1.5"></path><path d="M819.28 658.32L953.41 516.12" stroke="#132e65" stroke-width="1.5"></path><path d="M819.28 658.32L702.58 500.19" stroke="#132e65" stroke-width="1.5"></path><path d="M819.28 658.32L552.78 637.68" stroke="#132e65" stroke-width="1.5"></path><path d="M1006.03 106.34L1006.03 106.34" stroke="#132e65" stroke-width="1.5"></path><path d="M1006.03 106.34L952.51 199.72" stroke="#132e65" stroke-width="1.5"></path><path d="M1006.03 106.34L1101.28 192.71" stroke="#132e65" stroke-width="1.5"></path><path d="M952.51 199.72L952.51 199.72" stroke="#132e65" stroke-width="1.5"></path><path d="M952.51 199.72L999.75 340.32" stroke="#132e65" stroke-width="1.5"></path><path d="M952.51 199.72L1101.28 192.71" stroke="#132e65" stroke-width="1.5"></path><path d="M999.75 340.32L999.75 340.32" stroke="#132e65" stroke-width="1.5"></path><path d="M999.75 340.32L1143.7 404.01" stroke="#132e65" stroke-width="1.5"></path><path d="M953.41 516.12L953.41 516.12" stroke="#132e65" stroke-width="1.5"></path><path d="M953.41 516.12L946.64 649.8" stroke="#132e65" stroke-width="1.5"></path><path d="M953.41 516.12L1100.93 529.46" stroke="#132e65" stroke-width="1.5"></path><path d="M953.41 516.12L999.75 340.32" stroke="#132e65" stroke-width="1.5"></path><path d="M946.64 649.8L946.64 649.8" stroke="#132e65" stroke-width="1.5"></path><path d="M946.64 649.8L1098.39 695.13" stroke="#132e65" stroke-width="1.5"></path><path d="M946.64 649.8L858.44 497.62" stroke="#132e65" stroke-width="1.5"></path><path d="M946.64 649.8L1100.93 529.46" stroke="#132e65" stroke-width="1.5"></path><path d="M1159.7 -104.84L1159.7 -104.84" stroke="#132e65" stroke-width="1.5"></path><path d="M1159.7 -104.84L1267.9 -80.52" stroke="#132e65" stroke-width="1.5"></path><path d="M1159.7 -104.84L1261.37 109.44" stroke="#132e65" stroke-width="1.5"></path><path d="M1159.7 -104.84L1006.03 106.34" stroke="#132e65" stroke-width="1.5"></path><path d="M1101.28 192.71L1101.28 192.71" stroke="#132e65" stroke-width="1.5"></path><path d="M1101.28 192.71L999.75 340.32" stroke="#132e65" stroke-width="1.5"></path><path d="M1101.28 192.71L1261.37 109.44" stroke="#132e65" stroke-width="1.5"></path><path d="M1101.28 192.71L1304.93 194.24" stroke="#132e65" stroke-width="1.5"></path><path d="M1101.28 192.71L1143.7 404.01" stroke="#132e65" stroke-width="1.5"></path><path d="M1143.7 404.01L1143.7 404.01" stroke="#132e65" stroke-width="1.5"></path><path d="M1143.7 404.01L1100.93 529.46" stroke="#132e65" stroke-width="1.5"></path><path d="M1143.7 404.01L1286.65 370.42" stroke="#132e65" stroke-width="1.5"></path><path d="M1100.93 529.46L1100.93 529.46" stroke="#132e65" stroke-width="1.5"></path><path d="M1100.93 529.46L1098.39 695.13" stroke="#132e65" stroke-width="1.5"></path><path d="M1098.39 695.13L1098.39 695.13" stroke="#132e65" stroke-width="1.5"></path><path d="M1267.9 -80.52L1267.9 -80.52" stroke="#132e65" stroke-width="1.5"></path><path d="M1267.9 -80.52L1261.37 109.44" stroke="#132e65" stroke-width="1.5"></path><path d="M1261.37 109.44L1261.37 109.44" stroke="#132e65" stroke-width="1.5"></path><path d="M1261.37 109.44L1304.93 194.24" stroke="#132e65" stroke-width="1.5"></path><path d="M1261.37 109.44L1417.22 89.05" stroke="#132e65" stroke-width="1.5"></path><path d="M1304.93 194.24L1304.93 194.24" stroke="#132e65" stroke-width="1.5"></path><path d="M1304.93 194.24L1417.22 89.05" stroke="#132e65" stroke-width="1.5"></path><path d="M1304.93 194.24L1286.65 370.42" stroke="#132e65" stroke-width="1.5"></path><path d="M1304.93 194.24L1395.94 394.97" stroke="#132e65" stroke-width="1.5"></path><path d="M1286.65 370.42L1286.65 370.42" stroke="#132e65" stroke-width="1.5"></path><path d="M1286.65 370.42L1395.94 394.97" stroke="#132e65" stroke-width="1.5"></path><path d="M1286.65 370.42L1310.14 521.27" stroke="#132e65" stroke-width="1.5"></path><path d="M1310.14 521.27L1310.14 521.27" stroke="#132e65" stroke-width="1.5"></path><path d="M1310.14 521.27L1445.93 529.8" stroke="#132e65" stroke-width="1.5"></path><path d="M1310.14 521.27L1395.94 394.97" stroke="#132e65" stroke-width="1.5"></path><path d="M1289.99 684.8L1289.99 684.8" stroke="#132e65" stroke-width="1.5"></path><path d="M1289.99 684.8L1433.87 660.64" stroke="#132e65" stroke-width="1.5"></path><path d="M1289.99 684.8L1310.14 521.27" stroke="#132e65" stroke-width="1.5"></path><path d="M1289.99 684.8L1098.39 695.13" stroke="#132e65" stroke-width="1.5"></path><path d="M1289.99 684.8L1445.93 529.8" stroke="#132e65" stroke-width="1.5"></path><path d="M1461.51 -50.91L1461.51 -50.91" stroke="#132e65" stroke-width="1.5"></path><path d="M1461.51 -50.91L1552.74 -42.2" stroke="#132e65" stroke-width="1.5"></path><path d="M1461.51 -50.91L1417.22 89.05" stroke="#132e65" stroke-width="1.5"></path><path d="M1461.51 -50.91L1586.07 79.5" stroke="#132e65" stroke-width="1.5"></path><path d="M1461.51 -50.91L1267.9 -80.52" stroke="#132e65" stroke-width="1.5"></path><path d="M1417.22 89.05L1417.22 89.05" stroke="#132e65" stroke-width="1.5"></path><path d="M1395.94 394.97L1395.94 394.97" stroke="#132e65" stroke-width="1.5"></path><path d="M1395.94 394.97L1445.93 529.8" stroke="#132e65" stroke-width="1.5"></path><path d="M1445.93 529.8L1445.93 529.8" stroke="#132e65" stroke-width="1.5"></path><path d="M1445.93 529.8L1433.87 660.64" stroke="#132e65" stroke-width="1.5"></path><path d="M1433.87 660.64L1433.87 660.64" stroke="#132e65" stroke-width="1.5"></path><path d="M1433.87 660.64L1310.14 521.27" stroke="#132e65" stroke-width="1.5"></path><path d="M1433.87 660.64L1395.94 394.97" stroke="#132e65" stroke-width="1.5"></path><path d="M1552.74 -42.2L1552.74 -42.2" stroke="#132e65" stroke-width="1.5"></path><path d="M1552.74 -42.2L1586.07 79.5" stroke="#132e65" stroke-width="1.5"></path><path d="M1552.74 -42.2L1417.22 89.05" stroke="#132e65" stroke-width="1.5"></path><path d="M1552.74 -42.2L1558.28 235.4" stroke="#132e65" stroke-width="1.5"></path><path d="M1552.74 -42.2L1267.9 -80.52" stroke="#132e65" stroke-width="1.5"></path><path d="M1586.07 79.5L1586.07 79.5" stroke="#132e65" stroke-width="1.5"></path><path d="M1586.07 79.5L1558.28 235.4" stroke="#132e65" stroke-width="1.5"></path><path d="M1586.07 79.5L1417.22 89.05" stroke="#132e65" stroke-width="1.5"></path><path d="M1558.28 235.4L1558.28 235.4" stroke="#132e65" stroke-width="1.5"></path><path d="M1558.28 235.4L1604.71 339.47" stroke="#132e65" stroke-width="1.5"></path><path d="M1558.28 235.4L1417.22 89.05" stroke="#132e65" stroke-width="1.5"></path><path d="M1604.71 339.47L1604.71 339.47" stroke="#132e65" stroke-width="1.5"></path><path d="M1604.71 339.47L1395.94 394.97" stroke="#132e65" stroke-width="1.5"></path><path d="M1604.71 339.47L1445.93 529.8" stroke="#132e65" stroke-width="1.5"></path><circle r="5" cx="-38.34" cy="393.08" fill="#132e65"></circle><circle r="5" cx="-76.72" cy="511.59" fill="#132e65"></circle><circle r="5" cx="-51.68" cy="694.44" fill="#132e65"></circle><circle r="5" cx="78.66" cy="400.82" fill="#132e65"></circle><circle r="5" cx="37.62" cy="542.56" fill="#132e65"></circle><circle r="5" cx="50.21" cy="649.82" fill="#132e65"></circle><circle r="5" cx="211.56" cy="403.64" fill="#132e65"></circle><circle r="5" cx="238.96" cy="542.21" fill="#132e65"></circle><circle r="5" cx="238.76" cy="640.13" fill="#132e65"></circle><circle r="5" cx="383.3" cy="397.88" fill="#132e65"></circle><circle r="5" cx="372.75" cy="516.21" fill="#132e65"></circle><circle r="5" cx="392.57" cy="659.02" fill="#132e65"></circle><circle r="5" cx="541.67" cy="530.58" fill="#132e65"></circle><circle r="5" cx="552.78" cy="637.68" fill="#132e65"></circle><circle r="5" cx="657.38" cy="347.16" fill="#132e65"></circle><circle r="5" cx="702.58" cy="500.19" fill="#132e65"></circle><circle r="5" cx="658.75" cy="647.55" fill="#132e65"></circle><circle r="5" cx="852.09" cy="207.84" fill="#132e65"></circle><circle r="5" cx="790.28" cy="366.58" fill="#132e65"></circle><circle r="5" cx="858.44" cy="497.62" fill="#132e65"></circle><circle r="5" cx="819.28" cy="658.32" fill="#132e65"></circle><circle r="5" cx="1006.03" cy="106.34" fill="#132e65"></circle><circle r="5" cx="952.51" cy="199.72" fill="#132e65"></circle><circle r="5" cx="999.75" cy="340.32" fill="#132e65"></circle><circle r="5" cx="953.41" cy="516.12" fill="#132e65"></circle><circle r="5" cx="946.64" cy="649.8" fill="#132e65"></circle><circle r="5" cx="1159.7" cy="-104.84" fill="#132e65"></circle><circle r="5" cx="1101.28" cy="192.71" fill="#132e65"></circle><circle r="5" cx="1143.7" cy="404.01" fill="#132e65"></circle><circle r="5" cx="1100.93" cy="529.46" fill="#132e65"></circle><circle r="5" cx="1098.39" cy="695.13" fill="#132e65"></circle><circle r="5" cx="1267.9" cy="-80.52" fill="#132e65"></circle><circle r="5" cx="1261.37" cy="109.44" fill="#132e65"></circle><circle r="5" cx="1304.93" cy="194.24" fill="#132e65"></circle><circle r="5" cx="1286.65" cy="370.42" fill="#132e65"></circle><circle r="5" cx="1310.14" cy="521.27" fill="#132e65"></circle><circle r="5" cx="1289.99" cy="684.8" fill="#132e65"></circle><circle r="5" cx="1461.51" cy="-50.91" fill="#132e65"></circle><circle r="5" cx="1417.22" cy="89.05" fill="#132e65"></circle><circle r="5" cx="1395.94" cy="394.97" fill="#132e65"></circle><circle r="5" cx="1445.93" cy="529.8" fill="#132e65"></circle><circle r="5" cx="1433.87" cy="660.64" fill="#132e65"></circle><circle r="5" cx="1552.74" cy="-42.2" fill="#132e65"></circle><circle r="5" cx="1586.07" cy="79.5" fill="#132e65"></circle><circle r="5" cx="1558.28" cy="235.4" fill="#132e65"></circle><circle r="5" cx="1604.71" cy="339.47" fill="#132e65"></circle><path d="M38.91 696.47L38.91 696.47" stroke="hsl(228.5, 77.2%, 51.5%)" stroke-width="1.5"></path><path d="M38.91 696.47L-54.58 639.73" stroke="hsl(228.5, 77.2%, 51.5%)" stroke-width="1.5"></path><path d="M38.91 696.47L62.04 555.52" stroke="hsl(228.5, 77.2%, 51.5%)" stroke-width="1.5"></path><path d="M38.91 696.47L-90.25 541.69" stroke="hsl(228.5, 77.2%, 51.5%)" stroke-width="1.5"></path><path d="M38.91 696.47L348.96 643.88" stroke="hsl(228.5, 77.2%, 51.5%)" stroke-width="1.5"></path><path d="M38.91 696.47L388.82 495.07" stroke="hsl(228.5, 77.2%, 51.5%)" stroke-width="1.5"></path><path d="M388.82 495.07L388.82 495.07" stroke="hsl(228.5, 77.2%, 51.5%)" stroke-width="1.5"></path><path d="M388.82 495.07L534.26 530.43" stroke="hsl(228.5, 77.2%, 51.5%)" stroke-width="1.5"></path><path d="M388.82 495.07L348.96 643.88" stroke="hsl(228.5, 77.2%, 51.5%)" stroke-width="1.5"></path><path d="M705.57 510.84L705.57 510.84" stroke="hsl(228.5, 77.2%, 51.5%)" stroke-width="1.5"></path><path d="M705.57 510.84L841.78 487.75" stroke="hsl(228.5, 77.2%, 51.5%)" stroke-width="1.5"></path><path d="M705.57 510.84L671.16 658.29" stroke="hsl(228.5, 77.2%, 51.5%)" stroke-width="1.5"></path><path d="M705.57 510.84L534.26 530.43" stroke="hsl(228.5, 77.2%, 51.5%)" stroke-width="1.5"></path><path d="M705.57 510.84L847.74 404.2" stroke="hsl(228.5, 77.2%, 51.5%)" stroke-width="1.5"></path><path d="M705.57 510.84L861.96 649.05" stroke="hsl(228.5, 77.2%, 51.5%)" stroke-width="1.5"></path><path d="M705.57 510.84L500.49 671.98" stroke="hsl(228.5, 77.2%, 51.5%)" stroke-width="1.5"></path><path d="M1429.66 207.41L1429.66 207.41" stroke="hsl(228.5, 77.2%, 51.5%)" stroke-width="1.5"></path><path d="M1429.66 207.41L1417.43 100.38" stroke="hsl(228.5, 77.2%, 51.5%)" stroke-width="1.5"></path><path d="M1585.24 67.48L1585.24 67.48" stroke="hsl(228.5, 77.2%, 51.5%)" stroke-width="1.5"></path><path d="M1585.24 67.48L1538.32 -42.82" stroke="hsl(228.5, 77.2%, 51.5%)" stroke-width="1.5"></path><path d="M1585.24 67.48L1601.18 217.88" stroke="hsl(228.5, 77.2%, 51.5%)" stroke-width="1.5"></path><path d="M1585.24 67.48L1417.43 100.38" stroke="hsl(228.5, 77.2%, 51.5%)" stroke-width="1.5"></path><path d="M1585.24 67.48L1429.66 207.41" stroke="hsl(228.5, 77.2%, 51.5%)" stroke-width="1.5"></path><path d="M1585.24 67.48L1396.7 -95.72" stroke="hsl(228.5, 77.2%, 51.5%)" stroke-width="1.5"></path><path d="M1585.24 67.48L1297.86 214.68" stroke="hsl(228.5, 77.2%, 51.5%)" stroke-width="1.5"></path><path d="M1601.18 217.88L1601.18 217.88" stroke="hsl(228.5, 77.2%, 51.5%)" stroke-width="1.5"></path><path d="M1601.18 217.88L1429.66 207.41" stroke="hsl(228.5, 77.2%, 51.5%)" stroke-width="1.5"></path><path d="M-90.25 541.69L-90.25 541.69" stroke="hsl(228.5, 77.2%, 51.5%)" stroke-width="1.5"></path><path d="M-90.25 541.69L-54.58 639.73" stroke="hsl(228.5, 77.2%, 51.5%)" stroke-width="1.5"></path><path d="M-90.25 541.69L62.04 555.52" stroke="hsl(228.5, 77.2%, 51.5%)" stroke-width="1.5"></path><path d="M-90.25 541.69L348.96 643.88" stroke="hsl(228.5, 77.2%, 51.5%)" stroke-width="1.5"></path><path d="M-90.25 541.69L388.82 495.07" stroke="hsl(228.5, 77.2%, 51.5%)" stroke-width="1.5"></path><path d="M-54.58 639.73L-54.58 639.73" stroke="hsl(228.5, 77.2%, 51.5%)" stroke-width="1.5"></path><path d="M-54.58 639.73L62.04 555.52" stroke="hsl(228.5, 77.2%, 51.5%)" stroke-width="1.5"></path><path d="M-54.58 639.73L348.96 643.88" stroke="hsl(228.5, 77.2%, 51.5%)" stroke-width="1.5"></path><path d="M-54.58 639.73L388.82 495.07" stroke="hsl(228.5, 77.2%, 51.5%)" stroke-width="1.5"></path><path d="M-54.58 639.73L500.49 671.98" stroke="hsl(228.5, 77.2%, 51.5%)" stroke-width="1.5"></path><path d="M62.04 555.52L62.04 555.52" stroke="hsl(228.5, 77.2%, 51.5%)" stroke-width="1.5"></path><path d="M62.04 555.52L348.96 643.88" stroke="hsl(228.5, 77.2%, 51.5%)" stroke-width="1.5"></path><path d="M62.04 555.52L388.82 495.07" stroke="hsl(228.5, 77.2%, 51.5%)" stroke-width="1.5"></path><path d="M348.96 643.88L348.96 643.88" stroke="hsl(228.5, 77.2%, 51.5%)" stroke-width="1.5"></path><path d="M348.96 643.88L500.49 671.98" stroke="hsl(228.5, 77.2%, 51.5%)" stroke-width="1.5"></path><path d="M348.96 643.88L534.26 530.43" stroke="hsl(228.5, 77.2%, 51.5%)" stroke-width="1.5"></path><path d="M348.96 643.88L671.16 658.29" stroke="hsl(228.5, 77.2%, 51.5%)" stroke-width="1.5"></path><path d="M534.26 530.43L534.26 530.43" stroke="hsl(228.5, 77.2%, 51.5%)" stroke-width="1.5"></path><path d="M534.26 530.43L500.49 671.98" stroke="hsl(228.5, 77.2%, 51.5%)" stroke-width="1.5"></path><path d="M500.49 671.98L500.49 671.98" stroke="hsl(228.5, 77.2%, 51.5%)" stroke-width="1.5"></path><path d="M500.49 671.98L671.16 658.29" stroke="hsl(228.5, 77.2%, 51.5%)" stroke-width="1.5"></path><path d="M500.49 671.98L388.82 495.07" stroke="hsl(228.5, 77.2%, 51.5%)" stroke-width="1.5"></path><path d="M671.16 658.29L671.16 658.29" stroke="hsl(228.5, 77.2%, 51.5%)" stroke-width="1.5"></path><path d="M671.16 658.29L534.26 530.43" stroke="hsl(228.5, 77.2%, 51.5%)" stroke-width="1.5"></path><path d="M671.16 658.29L861.96 649.05" stroke="hsl(228.5, 77.2%, 51.5%)" stroke-width="1.5"></path><path d="M847.74 404.2L847.74 404.2" stroke="hsl(228.5, 77.2%, 51.5%)" stroke-width="1.5"></path><path d="M847.74 404.2L841.78 487.75" stroke="hsl(228.5, 77.2%, 51.5%)" stroke-width="1.5"></path><path d="M847.74 404.2L964.39 341.38" stroke="hsl(228.5, 77.2%, 51.5%)" stroke-width="1.5"></path><path d="M841.78 487.75L841.78 487.75" stroke="hsl(228.5, 77.2%, 51.5%)" stroke-width="1.5"></path><path d="M841.78 487.75L993.67 526.04" stroke="hsl(228.5, 77.2%, 51.5%)" stroke-width="1.5"></path><path d="M841.78 487.75L861.96 649.05" stroke="hsl(228.5, 77.2%, 51.5%)" stroke-width="1.5"></path><path d="M841.78 487.75L964.39 341.38" stroke="hsl(228.5, 77.2%, 51.5%)" stroke-width="1.5"></path><path d="M861.96 649.05L861.96 649.05" stroke="hsl(228.5, 77.2%, 51.5%)" stroke-width="1.5"></path><path d="M861.96 649.05L971.86 697.16" stroke="hsl(228.5, 77.2%, 51.5%)" stroke-width="1.5"></path><path d="M861.96 649.05L993.67 526.04" stroke="hsl(228.5, 77.2%, 51.5%)" stroke-width="1.5"></path><path d="M861.96 649.05L1098.33 650.57" stroke="hsl(228.5, 77.2%, 51.5%)" stroke-width="1.5"></path><path d="M964.39 341.38L964.39 341.38" stroke="hsl(228.5, 77.2%, 51.5%)" stroke-width="1.5"></path><path d="M964.39 341.38L1100.41 352.02" stroke="hsl(228.5, 77.2%, 51.5%)" stroke-width="1.5"></path><path d="M964.39 341.38L993.67 526.04" stroke="hsl(228.5, 77.2%, 51.5%)" stroke-width="1.5"></path><path d="M964.39 341.38L1106.59 197.33" stroke="hsl(228.5, 77.2%, 51.5%)" stroke-width="1.5"></path><path d="M993.67 526.04L993.67 526.04" stroke="hsl(228.5, 77.2%, 51.5%)" stroke-width="1.5"></path><path d="M993.67 526.04L1151.92 523.96" stroke="hsl(228.5, 77.2%, 51.5%)" stroke-width="1.5"></path><path d="M971.86 697.16L971.86 697.16" stroke="hsl(228.5, 77.2%, 51.5%)" stroke-width="1.5"></path><path d="M971.86 697.16L1098.33 650.57" stroke="hsl(228.5, 77.2%, 51.5%)" stroke-width="1.5"></path><path d="M971.86 697.16L993.67 526.04" stroke="hsl(228.5, 77.2%, 51.5%)" stroke-width="1.5"></path><path d="M971.86 697.16L841.78 487.75" stroke="hsl(228.5, 77.2%, 51.5%)" stroke-width="1.5"></path><path d="M971.86 697.16L1151.92 523.96" stroke="hsl(228.5, 77.2%, 51.5%)" stroke-width="1.5"></path><path d="M971.86 697.16L1273.6 688.46" stroke="hsl(228.5, 77.2%, 51.5%)" stroke-width="1.5"></path><path d="M1106.59 197.33L1106.59 197.33" stroke="hsl(228.5, 77.2%, 51.5%)" stroke-width="1.5"></path><path d="M1106.59 197.33L1100.41 352.02" stroke="hsl(228.5, 77.2%, 51.5%)" stroke-width="1.5"></path><path d="M1106.59 197.33L1243.08 100.7" stroke="hsl(228.5, 77.2%, 51.5%)" stroke-width="1.5"></path><path d="M1106.59 197.33L1297.86 214.68" stroke="hsl(228.5, 77.2%, 51.5%)" stroke-width="1.5"></path><path d="M1100.41 352.02L1100.41 352.02" stroke="hsl(228.5, 77.2%, 51.5%)" stroke-width="1.5"></path><path d="M1100.41 352.02L1151.92 523.96" stroke="hsl(228.5, 77.2%, 51.5%)" stroke-width="1.5"></path><path d="M1151.92 523.96L1151.92 523.96" stroke="hsl(228.5, 77.2%, 51.5%)" stroke-width="1.5"></path><path d="M1151.92 523.96L1098.33 650.57" stroke="hsl(228.5, 77.2%, 51.5%)" stroke-width="1.5"></path><path d="M1098.33 650.57L1098.33 650.57" stroke="hsl(228.5, 77.2%, 51.5%)" stroke-width="1.5"></path><path d="M1098.33 650.57L993.67 526.04" stroke="hsl(228.5, 77.2%, 51.5%)" stroke-width="1.5"></path><path d="M1098.33 650.57L1273.6 688.46" stroke="hsl(228.5, 77.2%, 51.5%)" stroke-width="1.5"></path><path d="M1252.31 -82.01L1252.31 -82.01" stroke="hsl(228.5, 77.2%, 51.5%)" stroke-width="1.5"></path><path d="M1252.31 -82.01L1396.7 -95.72" stroke="hsl(228.5, 77.2%, 51.5%)" stroke-width="1.5"></path><path d="M1252.31 -82.01L1243.08 100.7" stroke="hsl(228.5, 77.2%, 51.5%)" stroke-width="1.5"></path><path d="M1252.31 -82.01L1417.43 100.38" stroke="hsl(228.5, 77.2%, 51.5%)" stroke-width="1.5"></path><path d="M1243.08 100.7L1243.08 100.7" stroke="hsl(228.5, 77.2%, 51.5%)" stroke-width="1.5"></path><path d="M1243.08 100.7L1297.86 214.68" stroke="hsl(228.5, 77.2%, 51.5%)" stroke-width="1.5"></path><path d="M1243.08 100.7L1417.43 100.38" stroke="hsl(228.5, 77.2%, 51.5%)" stroke-width="1.5"></path><path d="M1297.86 214.68L1297.86 214.68" stroke="hsl(228.5, 77.2%, 51.5%)" stroke-width="1.5"></path><path d="M1297.86 214.68L1429.66 207.41" stroke="hsl(228.5, 77.2%, 51.5%)" stroke-width="1.5"></path><path d="M1273.6 688.46L1273.6 688.46" stroke="hsl(228.5, 77.2%, 51.5%)" stroke-width="1.5"></path><path d="M1273.6 688.46L1456.63 642.05" stroke="hsl(228.5, 77.2%, 51.5%)" stroke-width="1.5"></path><path d="M1273.6 688.46L1151.92 523.96" stroke="hsl(228.5, 77.2%, 51.5%)" stroke-width="1.5"></path><path d="M1273.6 688.46L1401.35 491.02" stroke="hsl(228.5, 77.2%, 51.5%)" stroke-width="1.5"></path><path d="M1273.6 688.46L1563.57 665.67" stroke="hsl(228.5, 77.2%, 51.5%)" stroke-width="1.5"></path><path d="M1396.7 -95.72L1396.7 -95.72" stroke="hsl(228.5, 77.2%, 51.5%)" stroke-width="1.5"></path><path d="M1396.7 -95.72L1538.32 -42.82" stroke="hsl(228.5, 77.2%, 51.5%)" stroke-width="1.5"></path><path d="M1417.43 100.38L1417.43 100.38" stroke="hsl(228.5, 77.2%, 51.5%)" stroke-width="1.5"></path><path d="M1417.43 100.38L1297.86 214.68" stroke="hsl(228.5, 77.2%, 51.5%)" stroke-width="1.5"></path><path d="M1408.22 395.9L1408.22 395.9" stroke="hsl(228.5, 77.2%, 51.5%)" stroke-width="1.5"></path><path d="M1408.22 395.9L1401.35 491.02" stroke="hsl(228.5, 77.2%, 51.5%)" stroke-width="1.5"></path><path d="M1408.22 395.9L1559.96 410.69" stroke="hsl(228.5, 77.2%, 51.5%)" stroke-width="1.5"></path><path d="M1408.22 395.9L1429.66 207.41" stroke="hsl(228.5, 77.2%, 51.5%)" stroke-width="1.5"></path><path d="M1408.22 395.9L1297.86 214.68" stroke="hsl(228.5, 77.2%, 51.5%)" stroke-width="1.5"></path><path d="M1408.22 395.9L1456.63 642.05" stroke="hsl(228.5, 77.2%, 51.5%)" stroke-width="1.5"></path><path d="M1408.22 395.9L1611.6 551.58" stroke="hsl(228.5, 77.2%, 51.5%)" stroke-width="1.5"></path><path d="M1401.35 491.02L1401.35 491.02" stroke="hsl(228.5, 77.2%, 51.5%)" stroke-width="1.5"></path><path d="M1401.35 491.02L1456.63 642.05" stroke="hsl(228.5, 77.2%, 51.5%)" stroke-width="1.5"></path><path d="M1456.63 642.05L1456.63 642.05" stroke="hsl(228.5, 77.2%, 51.5%)" stroke-width="1.5"></path><path d="M1456.63 642.05L1563.57 665.67" stroke="hsl(228.5, 77.2%, 51.5%)" stroke-width="1.5"></path><path d="M1538.32 -42.82L1538.32 -42.82" stroke="hsl(228.5, 77.2%, 51.5%)" stroke-width="1.5"></path><path d="M1559.96 410.69L1559.96 410.69" stroke="hsl(228.5, 77.2%, 51.5%)" stroke-width="1.5"></path><path d="M1559.96 410.69L1611.6 551.58" stroke="hsl(228.5, 77.2%, 51.5%)" stroke-width="1.5"></path><path d="M1559.96 410.69L1401.35 491.02" stroke="hsl(228.5, 77.2%, 51.5%)" stroke-width="1.5"></path><path d="M1559.96 410.69L1601.18 217.88" stroke="hsl(228.5, 77.2%, 51.5%)" stroke-width="1.5"></path><path d="M1611.6 551.58L1611.6 551.58" stroke="hsl(228.5, 77.2%, 51.5%)" stroke-width="1.5"></path><path d="M1611.6 551.58L1563.57 665.67" stroke="hsl(228.5, 77.2%, 51.5%)" stroke-width="1.5"></path><path d="M1611.6 551.58L1456.63 642.05" stroke="hsl(228.5, 77.2%, 51.5%)" stroke-width="1.5"></path><path d="M1563.57 665.67L1563.57 665.67" stroke="hsl(228.5, 77.2%, 51.5%)" stroke-width="1.5"></path><circle r="25" cx="38.91" cy="696.47" fill="url(#SvgjsRadialGradient1001)"></circle><circle r="25" cx="388.82" cy="495.07" fill="url(#SvgjsRadialGradient1001)"></circle><circle r="25" cx="705.57" cy="510.84" fill="url(#SvgjsRadialGradient1001)"></circle><circle r="25" cx="1429.66" cy="207.41" fill="url(#SvgjsRadialGradient1001)"></circle><circle r="25" cx="1585.24" cy="67.48" fill="url(#SvgjsRadialGradient1001)"></circle><circle r="25" cx="1601.18" cy="217.88" fill="url(#SvgjsRadialGradient1001)"></circle><circle r="5" cx="-90.25" cy="541.69" fill="#8b9ad9"></circle><circle r="5" cx="-54.58" cy="639.73" fill="#8b9ad9"></circle><circle r="5" cx="62.04" cy="555.52" fill="#8b9ad9"></circle><circle r="5" cx="348.96" cy="643.88" fill="#8b9ad9"></circle><circle r="5" cx="534.26" cy="530.43" fill="#8b9ad9"></circle><circle r="5" cx="500.49" cy="671.98" fill="#8b9ad9"></circle><circle r="5" cx="671.16" cy="658.29" fill="#8b9ad9"></circle><circle r="5" cx="847.74" cy="404.2" fill="#8b9ad9"></circle><circle r="5" cx="841.78" cy="487.75" fill="#8b9ad9"></circle><circle r="5" cx="861.96" cy="649.05" fill="#8b9ad9"></circle><circle r="5" cx="964.39" cy="341.38" fill="#8b9ad9"></circle><circle r="5" cx="993.67" cy="526.04" fill="#8b9ad9"></circle><circle r="5" cx="971.86" cy="697.16" fill="#8b9ad9"></circle><circle r="5" cx="1106.59" cy="197.33" fill="#8b9ad9"></circle><circle r="5" cx="1100.41" cy="352.02" fill="#8b9ad9"></circle><circle r="5" cx="1151.92" cy="523.96" fill="#8b9ad9"></circle><circle r="5" cx="1098.33" cy="650.57" fill="#8b9ad9"></circle><circle r="5" cx="1252.31" cy="-82.01" fill="#8b9ad9"></circle><circle r="5" cx="1243.08" cy="100.7" fill="#8b9ad9"></circle><circle r="5" cx="1297.86" cy="214.68" fill="#8b9ad9"></circle><circle r="5" cx="1273.6" cy="688.46" fill="#8b9ad9"></circle><circle r="5" cx="1396.7" cy="-95.72" fill="#8b9ad9"></circle><circle r="5" cx="1417.43" cy="100.38" fill="#8b9ad9"></circle><circle r="5" cx="1408.22" cy="395.9" fill="#8b9ad9"></circle><circle r="5" cx="1401.35" cy="491.02" fill="#8b9ad9"></circle><circle r="5" cx="1456.63" cy="642.05" fill="#8b9ad9"></circle><circle r="5" cx="1538.32" cy="-42.82" fill="#8b9ad9"></circle><circle r="5" cx="1559.96" cy="410.69" fill="#8b9ad9"></circle><circle r="5" cx="1611.6" cy="551.58" fill="#8b9ad9"></circle><circle r="5" cx="1563.57" cy="665.67" fill="#8b9ad9"></circle></g><defs><mask id="SvgjsMask1000"><rect width="1440" height="560" fill="#ffffff"></rect></mask><radialGradient id="SvgjsRadialGradient1001"><stop stop-color="#ffffff" offset="0.1"></stop><stop stop-color="#1735b3" offset="0.2"></stop><stop stop-color="rgba(23, 53, 179, 0)" offset="1"></stop></radialGradient></defs></svg>